<svg xmlns="http://www.w3.org/2000/svg" version="1.1" xmlns:xlink="http://www.w3.org/1999/xlink" xmlns:svgjs="http://svgjs.dev/svgjs" width="1000" height="277" viewBox="0 0 1000 277"><g transform="matrix(1,0,0,1,-0.6060606060606233,-0.27168475666292125)"><svg viewBox="0 0 396 110" data-background-color="#ffffff" preserveAspectRatio="xMidYMid meet" height="277" width="1000" xmlns="http://www.w3.org/2000/svg" xmlns:xlink="http://www.w3.org/1999/xlink"><g id="tight-bounds" transform="matrix(1,0,0,1,0.2400000000000091,0.10788925354844991)"><svg viewBox="0 0 395.52 109.78422149290311" height="109.78422149290311" width="395.52"><g><svg viewBox="0 0 397.49759999999986 110.33314260036761" height="109.78422149290311" width="395.52"><g><rect width="397.49759999999986" height="3.379358433765761" x="0" y="60.63424487173719" fill="#adbfb8" opacity="1" stroke-width="0" stroke="transparent" fill-opacity="1" class="rect-o-0" data-fill-palette-color="secondary" rx="1%" id="o-0" data-palette-color="#adbfb8"></rect></g><g transform="matrix(1,0,0,1,0.9887999999999693,72.86009135201019)"><svg viewBox="0 0 395.5199999999999 37.47305124835742" height="37.47305124835742" width="395.5199999999999"><g id="textblocktransform"><svg viewBox="0 0 395.5199999999999 37.47305124835742" height="37.47305124835742" width="395.5199999999999" id="textblock"><g><svg viewBox="0 0 395.5199999999999 37.47305124835742" height="37.47305124835742" width="395.5199999999999"><g transform="matrix(1,0,0,1,0,0)"><svg width="395.5199999999999" viewBox="2.1500000953674316 -35.29999923706055 380.4700012207031 36.04999923706055" height="37.47305124835742" data-palette-color="#31c48d"><path d="M17.25-35.3Q20.4-35.3 22.75-34.4 25.1-33.5 27.35-31.65L27.35-31.65 24-27.75Q20.95-30.2 17.6-30.2L17.6-30.2Q13.75-30.2 11.43-27.1 9.1-24 9.1-17.35L9.1-17.35Q9.1-10.85 11.4-7.7 13.7-4.55 17.6-4.55L17.6-4.55Q19.65-4.55 21.25-5.28 22.85-6 24.65-7.35L24.65-7.35 27.75-3.45Q26-1.65 23.33-0.45 20.65 0.75 17.35 0.75L17.35 0.75Q12.85 0.75 9.4-1.35 5.95-3.45 4.05-7.53 2.15-11.6 2.15-17.35L2.15-17.35Q2.15-23 4.13-27.05 6.1-31.1 9.53-33.2 12.95-35.3 17.25-35.3L17.25-35.3ZM45.7-35.3Q50.35-35.3 53.75-33.2 57.15-31.1 58.97-27.05 60.8-23 60.8-17.3L60.8-17.3Q60.8-11.65 58.95-7.6 57.1-3.55 53.7-1.4 50.3 0.75 45.7 0.75L45.7 0.75Q41.05 0.75 37.65-1.35 34.25-3.45 32.4-7.5 30.55-11.55 30.55-17.25L30.55-17.25Q30.55-22.85 32.4-26.93 34.25-31 37.67-33.15 41.1-35.3 45.7-35.3L45.7-35.3ZM45.7-30.25Q41.7-30.25 39.6-27.13 37.5-24 37.5-17.25L37.5-17.25Q37.5-4.3 45.7-4.3L45.7-4.3Q49.7-4.3 51.77-7.4 53.85-10.5 53.85-17.3L53.85-17.3Q53.85-24.05 51.77-27.15 49.7-30.25 45.7-30.25L45.7-30.25ZM80.2-35.3Q83.35-35.3 85.7-34.4 88.05-33.5 90.3-31.65L90.3-31.65 86.95-27.75Q83.9-30.2 80.55-30.2L80.55-30.2Q76.7-30.2 74.37-27.1 72.05-24 72.05-17.35L72.05-17.35Q72.05-10.85 74.35-7.7 76.65-4.55 80.55-4.55L80.55-4.55Q82.6-4.55 84.2-5.28 85.8-6 87.6-7.35L87.6-7.35 90.7-3.45Q88.95-1.65 86.27-0.45 83.6 0.75 80.3 0.75L80.3 0.75Q75.8 0.75 72.35-1.35 68.9-3.45 67-7.53 65.1-11.6 65.1-17.35L65.1-17.35Q65.1-23 67.07-27.05 69.05-31.1 72.47-33.2 75.9-35.3 80.2-35.3L80.2-35.3ZM95.39-34.55L101.99-34.55 101.99 0 95.39 0 95.39-34.55ZM114.24-34.55L121.39-34.55 109.44-18.9 122.34 0 114.49 0 102.29-18.45 114.24-34.55ZM122.59-34.55L148.24-34.55 147.54-29.3 138.54-29.3 138.54 0 131.89 0 131.89-29.3 122.59-29.3 122.59-34.55ZM177.84 0L170.84 0 168.69-8 157.24-8 155.09 0 148.24 0 158.99-34.55 167.14-34.55 177.84 0ZM162.94-29.5L158.54-13 167.34-13 162.94-29.5ZM181.69-34.55L188.29-34.55 188.29 0 181.69 0 181.69-34.55ZM196.38-34.55L202.98-34.55 202.98-5.4 216.83-5.4 216.08 0 196.38 0 196.38-34.55ZM231.63-35.3Q235.28-35.3 237.98-34.25 240.68-33.2 243.03-31.05L243.03-31.05 239.78-27.3Q237.93-28.85 236.06-29.55 234.18-30.25 232.03-30.25L232.03-30.25Q229.63-30.25 228.16-29.18 226.68-28.1 226.68-26.15L226.68-26.15Q226.68-24.85 227.26-24 227.83-23.15 229.33-22.4 230.83-21.65 233.78-20.75L233.78-20.75Q238.88-19.15 241.46-16.78 244.03-14.4 244.03-9.85L244.03-9.85Q244.03-6.75 242.46-4.35 240.88-1.95 237.93-0.6 234.98 0.75 230.93 0.75L230.93 0.75Q226.98 0.75 223.86-0.53 220.73-1.8 218.48-4L218.48-4 221.88-7.8Q223.88-6.1 226.03-5.23 228.18-4.35 230.78-4.35L230.78-4.35Q233.63-4.35 235.38-5.7 237.13-7.05 237.13-9.5L237.13-9.5Q237.13-11 236.53-11.98 235.93-12.95 234.48-13.73 233.03-14.5 230.28-15.35L230.28-15.35Q224.78-17.05 222.33-19.45 219.88-21.85 219.88-25.75L219.88-25.75Q219.88-28.6 221.38-30.75 222.88-32.9 225.56-34.1 228.23-35.3 231.63-35.3L231.63-35.3ZM276.13-35.3Q279.53-35.3 282.15-34.27 284.78-33.25 287.13-31.25L287.13-31.25 283.58-27.55Q281.73-29 280.1-29.65 278.48-30.3 276.33-30.3L276.33-30.3Q272.33-30.3 269.78-27.1 267.23-23.9 267.23-17.3L267.23-17.3Q267.23-10.4 269.25-7.35 271.28-4.3 275.43-4.3L275.43-4.3Q278.58-4.3 280.93-5.65L280.93-5.65 280.93-14.65 275.73-14.65 275.03-19.55 287.43-19.55 287.43-2.65Q281.83 0.75 275.53 0.75L275.53 0.75Q268.13 0.75 264.2-3.85 260.28-8.45 260.28-17.3L260.28-17.3Q260.28-22.95 262.4-27.03 264.53-31.1 268.13-33.2 271.73-35.3 276.13-35.3L276.13-35.3ZM319.27-34.55L319.27-11.3Q319.27-7.8 317.8-5.08 316.32-2.35 313.4-0.8 310.47 0.75 306.37 0.75L306.37 0.75Q300.17 0.75 296.87-2.53 293.57-5.8 293.57-11.3L293.57-11.3 293.57-34.55 300.17-34.55 300.17-11.65Q300.17-8 301.7-6.2 303.22-4.4 306.37-4.4L306.37-4.4Q309.57-4.4 311.1-6.2 312.62-8 312.62-11.65L312.62-11.65 312.62-34.55 319.27-34.55ZM345.32 0L337.67-13.85 333.47-13.85 333.47 0 326.87 0 326.87-34.55 337.17-34.55Q350.87-34.55 350.87-24.4L350.87-24.4Q350.87-20.95 349.17-18.7 347.47-16.45 343.87-15.05L343.87-15.05 352.92 0 345.32 0ZM333.47-29.75L333.47-18.6 337.57-18.6Q340.72-18.6 342.35-19.98 343.97-21.35 343.97-24.4L343.97-24.4Q343.97-27.2 342.3-28.48 340.62-29.75 337.02-29.75L337.02-29.75 333.47-29.75ZM382.62-34.55L382.62-11.3Q382.62-7.8 381.14-5.08 379.67-2.35 376.74-0.8 373.82 0.75 369.72 0.75L369.72 0.75Q363.52 0.75 360.22-2.53 356.92-5.8 356.92-11.3L356.92-11.3 356.92-34.55 363.52-34.55 363.52-11.65Q363.52-8 365.04-6.2 366.57-4.4 369.72-4.4L369.72-4.4Q372.92-4.4 374.44-6.2 375.97-8 375.97-11.65L375.97-11.65 375.97-34.55 382.62-34.55Z" opacity="1" transform="matrix(1,0,0,1,0,0)" fill="#31c48d" class="wordmark-text-0" data-fill-palette-color="primary" id="text-0"></path></svg></g></svg></g></svg></g></svg></g><g transform="matrix(1,0,0,1,172.1799756009815,0)"><svg viewBox="0 0 53.13764879803686 51.78775682522996" height="51.78775682522996" width="53.13764879803686"><g><svg xmlns="http://www.w3.org/2000/svg" xmlns:xlink="http://www.w3.org/1999/xlink" xml:space="preserve" style="shape-rendering:geometricPrecision;text-rendering:geometricPrecision;image-rendering:optimizeQuality;" viewBox="0.0000021457672119140625 0 3.8047099113464355 5.305596828460693" x="8" y="0" fill-rule="evenodd" clip-rule="evenodd" width="37.13764879803686" height="51.78775682522996" class="icon-icon-0" data-fill-palette-color="accent" id="icon-0"><g fill="#096a2e" data-fill-palette-color="accent"><path class="" d="M2.042 5.007c0.54 0.009 0.958 0.072 0.959 0.149 0 0.083-0.492 0.15-1.099 0.15-0.607 0-1.098-0.067-1.098-0.15 0-0.076 0.418-0.139 0.958-0.149l0-3.113-1.762-1.894 3.805 0-1.763 1.894 0 3.113z m-0.756-4.233c0.018 0 0.033 0.015 0.034 0.033 0 0.018-0.015 0.033-0.034 0.033-0.018 0-0.033-0.015-0.033-0.033 0-0.018 0.015-0.033 0.033-0.033z m0.075-0.147c0.018 0 0.033 0.015 0.033 0.033 0 0.018-0.015 0.033-0.033 0.033-0.018 0-0.033-0.015-0.033-0.033 0-0.018 0.015-0.033 0.033-0.033z m-0.106-0.194c0.018 0 0.033 0.015 0.033 0.033 0 0.018-0.015 0.033-0.033 0.033-0.018 0-0.033-0.015-0.033-0.033 0-0.018 0.015-0.033 0.033-0.033z m0.144 0.602c0.026 0 0.048 0.021 0.048 0.048 0 0.026-0.021 0.048-0.048 0.048-0.026 0-0.048-0.021-0.048-0.048 0-0.026 0.021-0.048 0.048-0.048z m0.076-0.23c0.039 0 0.071 0.032 0.072 0.072 0 0.039-0.032 0.071-0.072 0.071-0.039 0-0.071-0.032-0.071-0.071 0-0.039 0.032-0.071 0.071-0.072z m-0.02-0.282c0.033 0 0.059 0.026 0.059 0.059 0 0.033-0.026 0.059-0.059 0.059-0.033 0-0.059-0.026-0.058-0.059 0-0.033 0.026-0.059 0.058-0.059z m-0.281 0.026c0.039 0 0.071 0.032 0.072 0.071 0 0.039-0.032 0.071-0.072 0.072-0.039 0-0.071-0.032-0.071-0.072 0-0.039 0.032-0.071 0.071-0.071z m2.144-0.276l-1.416 1.479 0 0-1.539-1.609c0.957 0.664 2.329-0.345 2.955 0.13z" fill="#096a2e" data-fill-palette-color="accent"></path></g></svg></g></svg></g><g><rect width="95.64685560098157" height="3.379358433765761" y="47.4083983914642" x="225.31762439901834" fill="#adbfb8" data-fill-palette-color="secondary"></rect><rect width="95.64685560098157" height="3.379358433765761" y="47.4083983914642" x="76.53311999999994" fill="#adbfb8" data-fill-palette-color="secondary"></rect></g></svg></g><defs></defs></svg><rect width="395.52" height="109.78422149290311" fill="none" stroke="none" visibility="hidden"></rect></g></svg></g></svg>